<svg class="svg-icon" style="width: 1em; height: 1em;vertical-align: middle;fill: currentColor;overflow: hidden;" viewBox="0 0 1024 1024" version="1.1" xmlns="http://www.w3.org/2000/svg"><path d="M225.28 246.784h593.92c6.144 0 10.24 4.096 10.24 10.24v61.44c0 6.144-4.096 10.24-10.24 10.24H225.28c-6.144 0-10.24-4.096-10.24-10.24v-61.44c0-5.12 5.12-10.24 10.24-10.24z" fill="#67DCD1" /><path d="M808.96 787.456H492.544v-20.48H808.96c6.144 0 10.24-4.096 10.24-10.24v-491.52c0-6.144-4.096-10.24-10.24-10.24H235.52c-6.144 0-10.24 4.096-10.24 10.24v260.096h-20.48V265.216c0-17.408 13.312-30.72 30.72-30.72h573.44c17.408 0 30.72 13.312 30.72 30.72v491.52c0 17.408-13.312 30.72-30.72 30.72z" fill="#3F44EC" /><path d="M326.656 833.536c-81.92 0-148.48-66.56-148.48-148.48s66.56-148.48 148.48-148.48 148.48 66.56 148.48 148.48-66.56 148.48-148.48 148.48z m0-276.48c-70.656 0-128 57.344-128 128S256 813.056 326.656 813.056s128-57.344 128-128-57.344-128-128-128z" fill="#3F44EC" /><path d="M322.56 715.776h-61.44v-20.48h61.44v-72.704h20.48v72.704c0 11.264-9.216 20.48-20.48 20.48z" fill="#FDD55B" /><path d="M319.488 200.704h20.48c11.264 0 20.48 9.216 20.48 20.48v51.2c0 11.264-9.216 20.48-20.48 20.48h-20.48c-11.264 0-20.48-9.216-20.48-20.48v-51.2c0-11.264 9.216-20.48 20.48-20.48z" fill="#FFFFFF" /><path d="M339.968 303.104h-20.48c-17.408 0-30.72-13.312-30.72-30.72v-51.2c0-17.408 13.312-30.72 30.72-30.72h20.48c17.408 0 30.72 13.312 30.72 30.72v51.2c0 17.408-13.312 30.72-30.72 30.72z m-20.48-92.16c-6.144 0-10.24 4.096-10.24 10.24v51.2c0 6.144 4.096 10.24 10.24 10.24h20.48c6.144 0 10.24-4.096 10.24-10.24v-51.2c0-6.144-4.096-10.24-10.24-10.24h-20.48z" fill="#3F44EC" /><path d="M708.608 200.704h20.48c11.264 0 20.48 9.216 20.48 20.48v51.2c0 11.264-9.216 20.48-20.48 20.48h-20.48c-11.264 0-20.48-9.216-20.48-20.48v-51.2c0-11.264 9.216-20.48 20.48-20.48z" fill="#FFFFFF" /><path d="M729.088 303.104h-20.48c-17.408 0-30.72-13.312-30.72-30.72v-51.2c0-17.408 13.312-30.72 30.72-30.72h20.48c17.408 0 30.72 13.312 30.72 30.72v51.2c0 17.408-13.312 30.72-30.72 30.72z m-20.48-92.16c-6.144 0-10.24 4.096-10.24 10.24v51.2c0 6.144 4.096 10.24 10.24 10.24h20.48c6.144 0 10.24-4.096 10.24-10.24v-51.2c0-6.144-4.096-10.24-10.24-10.24h-20.48zM221.184 319.488h491.52v20.48h-491.52zM753.664 319.488h81.92v20.48h-81.92zM754.688 482.304h-51.2c-17.408 0-30.72-13.312-30.72-30.72v-20.48c0-17.408 13.312-30.72 30.72-30.72h51.2c17.408 0 30.72 13.312 30.72 30.72v20.48c0 17.408-13.312 30.72-30.72 30.72z m-51.2-61.44c-6.144 0-10.24 4.096-10.24 10.24v20.48c0 6.144 4.096 10.24 10.24 10.24h51.2c6.144 0 10.24-4.096 10.24-10.24v-20.48c0-6.144-4.096-10.24-10.24-10.24h-51.2zM754.688 594.944h-51.2c-17.408 0-30.72-13.312-30.72-30.72v-20.48c0-17.408 13.312-30.72 30.72-30.72h51.2c17.408 0 30.72 13.312 30.72 30.72v20.48c0 17.408-13.312 30.72-30.72 30.72z m-51.2-61.44c-6.144 0-10.24 4.096-10.24 10.24v20.48c0 6.144 4.096 10.24 10.24 10.24h51.2c6.144 0 10.24-4.096 10.24-10.24v-20.48c0-6.144-4.096-10.24-10.24-10.24h-51.2zM754.688 697.344h-51.2c-17.408 0-30.72-13.312-30.72-30.72v-20.48c0-17.408 13.312-30.72 30.72-30.72h51.2c17.408 0 30.72 13.312 30.72 30.72v20.48c0 17.408-13.312 30.72-30.72 30.72z m-51.2-61.44c-6.144 0-10.24 4.096-10.24 10.24v20.48c0 6.144 4.096 10.24 10.24 10.24h51.2c6.144 0 10.24-4.096 10.24-10.24v-20.48c0-6.144-4.096-10.24-10.24-10.24h-51.2zM618.496 594.944h-51.2c-17.408 0-30.72-13.312-30.72-30.72v-20.48c0-17.408 13.312-30.72 30.72-30.72h51.2c17.408 0 30.72 13.312 30.72 30.72v20.48c0 17.408-14.336 30.72-30.72 30.72z m-51.2-61.44c-6.144 0-10.24 4.096-10.24 10.24v20.48c0 6.144 4.096 10.24 10.24 10.24h51.2c6.144 0 10.24-4.096 10.24-10.24v-20.48c0-6.144-4.096-10.24-10.24-10.24h-51.2zM618.496 697.344h-51.2c-17.408 0-30.72-13.312-30.72-30.72v-20.48c0-17.408 13.312-30.72 30.72-30.72h51.2c17.408 0 30.72 13.312 30.72 30.72v20.48c0 17.408-14.336 30.72-30.72 30.72z m-51.2-61.44c-6.144 0-10.24 4.096-10.24 10.24v20.48c0 6.144 4.096 10.24 10.24 10.24h51.2c6.144 0 10.24-4.096 10.24-10.24v-20.48c0-6.144-4.096-10.24-10.24-10.24h-51.2zM618.496 482.304h-51.2c-17.408 0-30.72-13.312-30.72-30.72v-20.48c0-17.408 13.312-30.72 30.72-30.72h51.2c17.408 0 30.72 13.312 30.72 30.72v20.48c0 17.408-14.336 30.72-30.72 30.72z m-51.2-61.44c-6.144 0-10.24 4.096-10.24 10.24v20.48c0 6.144 4.096 10.24 10.24 10.24h51.2c6.144 0 10.24-4.096 10.24-10.24v-20.48c0-6.144-4.096-10.24-10.24-10.24h-51.2zM481.28 482.304h-51.2c-17.408 0-30.72-13.312-30.72-30.72v-20.48c0-17.408 13.312-30.72 30.72-30.72h51.2c17.408 0 30.72 13.312 30.72 30.72v20.48c0 17.408-13.312 30.72-30.72 30.72z m-51.2-61.44c-6.144 0-10.24 4.096-10.24 10.24v20.48c0 6.144 4.096 10.24 10.24 10.24h51.2c6.144 0 10.24-4.096 10.24-10.24v-20.48c0-6.144-4.096-10.24-10.24-10.24h-51.2zM345.088 482.304h-51.2c-17.408 0-30.72-13.312-30.72-30.72v-20.48c0-17.408 13.312-30.72 30.72-30.72h51.2c17.408 0 30.72 13.312 30.72 30.72v20.48c0 17.408-13.312 30.72-30.72 30.72z m-51.2-61.44c-6.144 0-10.24 4.096-10.24 10.24v20.48c0 6.144 4.096 10.24 10.24 10.24h51.2c6.144 0 10.24-4.096 10.24-10.24v-20.48c0-6.144-4.096-10.24-10.24-10.24h-51.2z" fill="#3F44EC" /></svg>