<svg class="svg-icon" style="width: 1em; height: 1em;vertical-align: middle;fill: currentColor;overflow: hidden;" viewBox="0 0 1024 1024" version="1.1" xmlns="http://www.w3.org/2000/svg"><path d="M975.238095 1024H48.761905a48.761905 48.761905 0 0 1-48.761905-48.761905V48.761905a48.761905 48.761905 0 0 1 48.761905-48.761905h536.380952a24.380952 24.380952 0 0 1 0 48.761905H73.142857a24.380952 24.380952 0 0 0-24.380952 24.380952v877.714286a24.380952 24.380952 0 0 0 24.380952 24.380952h877.714286a24.380952 24.380952 0 0 0 24.380952-24.380952V438.857143a24.380952 24.380952 0 0 1 48.761905 0v536.380952a48.761905 48.761905 0 0 1-48.761905 48.761905zM511.658667 707.047619v0.146286a24.064 24.064 0 0 1-23.942096 24.210285h-171.446857a24.088381 24.088381 0 0 1-23.942095-24.210285c0-0.463238 0.24381-0.853333 0.268191-1.316572v-170.130285a23.698286 23.698286 0 0 1 7.314285-17.066667L293.059048 512 790.430476 14.628571a48.761905 48.761905 0 0 1 68.949334 0l137.923047 137.923048a48.761905 48.761905 0 0 1 0 68.973714z m433.980952-537.478095l-103.448381-103.448381a24.380952 24.380952 0 0 0-34.474667 0L340.528762 533.357714a19.504762 19.504762 0 0 1 0.487619 2.438096v147.260952h125.732571L945.712762 204.092952a24.380952 24.380952 0 0 0 0-34.547809z"  /></svg>